PathFileType	4	(X/Y/Z)	 2.2Hzlow3min.trc
DataRate	CameraRate	NumFrames	NumMarkers	Units	OrigDataRate	OrigDataStartFrame	OrigNumFrames
200	200	10	39	m	200	376	1000
Frame#	Time	C7			LSH			RSH			MAN			RASI			LASI			HIPR			HIPL			RPSI			LPSI			COX			RTHI1			RTHI2			RTHI3			RTHI4			RLKN			RMKN			RSHA1			RSHA2			RSHA3			RSHA4			RHEEL			RMET5			RMET1			RTOE			LTHI1			LTHI2			LTHI3			LTHI4			LLKN			LMKN			LSHA1			LSHA2			LSHA3			LSHA4			LHEEL			LMET5			LMET1			LTOE			
		X1	Y1	Z1	X2	Y2	Z2	X3	Y3	Z3	X4	Y4	Z4	X5	Y5	Z5	X6	Y6	Z6	X7	Y7	Z7	X8	Y8	Z8	X9	Y9	Z9	X10	Y10	Z10	X11	Y11	Z11	X12	Y12	Z12	X13	Y13	Z13	X14	Y14	Z14	X15	Y15	Z15	X16	Y16	Z16	X17	Y17	Z17	X18	Y18	Z18	X19	Y19	Z19	X20	Y20	Z20	X21	Y21	Z21	X22	Y22	Z22	X23	Y23	Z23	X24	Y24	Z24	X25	Y25	Z25	X26	Y26	Z26	X27	Y27	Z27	X28	Y28	Z28	X29	Y29	Z29	X30	Y30	Z30	X31	Y31	Z31	X32	Y32	Z32	X33	Y33	Z33	X34	Y34	Z34	X35	Y35	Z35	X36	Y36	Z36	X37	Y37	Z37	X38	Y38	Z38	X39	Y39	Z39	
376	1.8800	-0.260685	1.531279	-0.521447	-0.212871	1.522760	-0.709989	-0.215211	1.527075	-0.341016	-0.107560	1.501371	-0.530604	-0.113013	1.020272	-0.413400	-0.124810	1.027698	-0.646476	-0.181456	1.101057	-0.359008	-0.188336	1.111228	-0.685422	-0.293118	1.079075	-0.480771	-0.294168	1.083715	-0.557971	-0.294314	1.077718	-0.518418	-0.204432	0.842597	-0.331197	-0.190851	0.785284	-0.325249	-0.127113	0.798728	-0.325465	-0.134295	0.859362	-0.332412	-0.184157	0.510788	-0.352392	-0.155465	0.503689	-0.474602	-0.254066	0.361695	-0.339377	-0.273997	0.324825	-0.350621	-0.217426	0.301894	-0.353044	-0.201513	0.338589	-0.347209	-0.339876	0.136102	-0.429142	-0.200453	0.041644	-0.356584	-0.150822	0.049308	-0.423415	-0.124794	0.038359	-0.417089	-0.236866	0.823857	-0.713407	-0.212117	0.767926	-0.722654	-0.153412	0.790590	-0.737934	-0.169652	0.848507	-0.731130	-0.189187	0.532943	-0.709835	-0.158307	0.518378	-0.588357	-0.284381	0.322188	-0.705160	-0.296725	0.284579	-0.695855	-0.238454	0.268412	-0.713327	-0.233818	0.311474	-0.720771	-0.339911	0.127651	-0.634390	-0.204992	0.043120	-0.724701	-0.150856	0.051631	-0.663029	-0.124391	0.037720	-0.672564	
377	1.8850	-0.260719	1.534714	-0.521220	-0.212799	1.526463	-0.709596	-0.214858	1.530658	-0.340951	-0.107711	1.504939	-0.530346	-0.112820	1.023780	-0.413192	-0.124900	1.031421	-0.646393	-0.181501	1.104934	-0.358929	-0.188500	1.115493	-0.685077	-0.292481	1.083204	-0.480429	-0.293899	1.087909	-0.557723	-0.293909	1.082015	-0.518138	-0.204617	0.846261	-0.331013	-0.191268	0.788854	-0.325180	-0.127467	0.801998	-0.325510	-0.134383	0.862672	-0.332354	-0.185751	0.514138	-0.352410	-0.157387	0.506950	-0.474789	-0.254551	0.364441	-0.338929	-0.274109	0.327347	-0.350151	-0.217357	0.304896	-0.352473	-0.201755	0.341745	-0.346679	-0.338519	0.138626	-0.428193	-0.199706	0.042583	-0.356592	-0.150662	0.049915	-0.423132	-0.124904	0.038990	-0.416412	-0.237623	0.827890	-0.712884	-0.213042	0.771887	-0.722175	-0.154297	0.794391	-0.737538	-0.170370	0.852351	-0.730713	-0.190766	0.536431	-0.709301	-0.159895	0.521568	-0.587782	-0.284411	0.324854	-0.705227	-0.296417	0.287072	-0.696118	-0.238055	0.271502	-0.713841	-0.233801	0.314655	-0.721035	-0.338276	0.130585	-0.635031	-0.204512	0.043927	-0.724548	-0.150524	0.052167	-0.663322	-0.124460	0.037925	-0.672983	
378	1.8900	-0.260730	1.537941	-0.520985	-0.212712	1.529932	-0.709216	-0.214523	1.534039	-0.340836	-0.107831	1.508242	-0.530086	-0.112678	1.027041	-0.412968	-0.124994	1.034896	-0.646290	-0.181592	1.108498	-0.358847	-0.188699	1.119469	-0.684738	-0.291903	1.087052	-0.480094	-0.293715	1.091864	-0.557445	-0.293576	1.086059	-0.517871	-0.204834	0.849706	-0.330925	-0.191661	0.792182	-0.325130	-0.127808	0.805033	-0.325563	-0.134475	0.865761	-0.332303	-0.187182	0.517229	-0.352413	-0.159152	0.509978	-0.474957	-0.254940	0.366966	-0.338469	-0.274150	0.329658	-0.349672	-0.217241	0.307660	-0.351940	-0.201926	0.344641	-0.346197	-0.337250	0.140930	-0.427286	-0.198976	0.043619	-0.356580	-0.150512	0.050658	-0.422797	-0.125012	0.039834	-0.415660	-0.238326	0.831685	-0.712407	-0.213896	0.775615	-0.721724	-0.155107	0.797968	-0.737131	-0.171022	0.855972	-0.730292	-0.192160	0.539683	-0.708782	-0.161326	0.524525	-0.587232	-0.284355	0.327328	-0.705270	-0.296037	0.289396	-0.696327	-0.237584	0.274382	-0.714244	-0.233692	0.317615	-0.721237	-0.336722	0.133337	-0.635514	-0.204046	0.044864	-0.724337	-0.150201	0.052778	-0.663665	-0.124563	0.038210	-0.673549	
379	1.8950	-0.260718	1.540951	-0.520745	-0.212619	1.533157	-0.708851	-0.214179	1.537198	-0.340691	-0.107928	1.511281	-0.529824	-0.112581	1.030040	-0.412739	-0.125097	1.038108	-0.646168	-0.181708	1.111745	-0.358759	-0.188914	1.123138	-0.684401	-0.291389	1.090603	-0.479759	-0.293631	1.095567	-0.557133	-0.293333	1.089837	-0.517610	-0.205033	0.852881	-0.330842	-0.192036	0.795251	-0.325098	-0.128128	0.807838	-0.325623	-0.134561	0.868607	-0.332261	-0.188450	0.520041	-0.352397	-0.160754	0.512749	-0.475093	-0.255245	0.369256	-0.337999	-0.274133	0.331748	-0.349189	-0.217083	0.310157	-0.351461	-0.202030	0.347275	-0.345771	-0.336101	0.143026	-0.426440	-0.198273	0.044745	-0.356522	-0.150360	0.051540	-0.422416	-0.125084	0.040905	-0.414881	-0.238963	0.835226	-0.711989	-0.214671	0.779090	-0.721307	-0.155825	0.801303	-0.736712	-0.171597	0.859347	-0.729875	-0.193369	0.542679	-0.708288	-0.162611	0.527261	-0.586712	-0.284217	0.329601	-0.705289	-0.295607	0.291549	-0.696482	-0.237055	0.277030	-0.714525	-0.233499	0.320333	-0.721365	-0.335319	0.135910	-0.635865	-0.203600	0.045954	-0.724087	-0.149908	0.053487	-0.664071	-0.124698	0.038611	-0.674267	
380	1.9000	-0.260688	1.543733	-0.520503	-0.212496	1.536139	-0.708487	-0.213821	1.540122	-0.340530	-0.108004	1.514052	-0.529559	-0.112527	1.032766	-0.412520	-0.125214	1.041043	-0.646028	-0.181831	1.114675	-0.358664	-0.189128	1.126486	-0.684067	-0.290947	1.093856	-0.479416	-0.293651	1.098992	-0.556778	-0.293187	1.093325	-0.517341	-0.205196	0.855764	-0.330736	-0.192382	0.798049	-0.325069	-0.128432	0.810393	-0.325690	-0.134645	0.871197	-0.332232	-0.189557	0.522573	-0.352361	-0.162197	0.515253	-0.475194	-0.255477	0.371304	-0.337517	-0.274074	0.333627	-0.348704	-0.216909	0.312403	-0.351043	-0.202083	0.349637	-0.345407	-0.335098	0.144894	-0.425653	-0.197607	0.045961	-0.356399	-0.150172	0.052607	-0.422007	-0.125080	0.042208	-0.414120	-0.239521	0.838493	-0.711634	-0.215353	0.782296	-0.720931	-0.156439	0.804376	-0.736292	-0.172085	0.862454	-0.729466	-0.194380	0.545410	-0.707825	-0.163761	0.529782	-0.586219	-0.284013	0.331664	-0.705285	-0.295145	0.293524	-0.696578	-0.236494	0.279427	-0.714665	-0.233231	0.322787	-0.721412	-0.334140	0.138297	-0.636080	-0.203185	0.047211	-0.723822	-0.149648	0.054348	-0.664540	-0.124847	0.039190	-0.675113	
381	1.9050	-0.260647	1.546274	-0.520263	-0.212334	1.538864	-0.708126	-0.213450	1.542801	-0.340361	-0.108063	1.516553	-0.529290	-0.112513	1.035211	-0.412321	-0.125348	1.043690	-0.645867	-0.181947	1.117289	-0.358561	-0.189333	1.129505	-0.683744	-0.290582	1.096804	-0.479058	-0.293722	1.102107	-0.556409	-0.293090	1.096462	-0.517053	-0.205336	0.858345	-0.330626	-0.192704	0.800562	-0.325046	-0.128715	0.812688	-0.325777	-0.134730	0.873526	-0.332221	-0.190513	0.524817	-0.352304	-0.163486	0.517481	-0.475259	-0.255647	0.373118	-0.337038	-0.273998	0.335291	-0.348226	-0.216741	0.314407	-0.350679	-0.202105	0.351719	-0.345095	-0.334270	0.146532	-0.424934	-0.196976	0.047273	-0.356185	-0.149923	0.053872	-0.421567	-0.124973	0.043732	-0.413393	-0.239990	0.841472	-0.711347	-0.215934	0.785220	-0.720595	-0.156943	0.807164	-0.735871	-0.172474	0.865279	-0.729080	-0.195193	0.547865	-0.707400	-0.164779	0.532111	-0.585752	-0.283765	0.333524	-0.705259	-0.294679	0.295321	-0.696621	-0.235929	0.281567	-0.714659	-0.232912	0.324975	-0.721370	-0.333201	0.140437	-0.636129	-0.202810	0.048656	-0.723573	-0.149414	0.055411	-0.665053	-0.124983	0.040022	-0.676047	
382	1.9100	-0.260600	1.548556	-0.520026	-0.212138	1.541323	-0.707770	-0.213124	1.545229	-0.340158	-0.108106	1.518782	-0.529019	-0.112533	1.037373	-0.412153	-0.125509	1.046039	-0.645689	-0.182044	1.119595	-0.358448	-0.189513	1.132187	-0.683437	-0.290487	1.099535	-0.478764	-0.293840	1.104892	-0.556037	-0.293041	1.099248	-0.516730	-0.205475	0.860644	-0.330536	-0.192999	0.802791	-0.325019	-0.128970	0.814719	-0.325875	-0.134814	0.875587	-0.332227	-0.191346	0.526778	-0.352238	-0.164630	0.519435	-0.475288	-0.255772	0.374729	-0.336562	-0.273932	0.336773	-0.347769	-0.216600	0.316170	-0.350373	-0.202117	0.353544	-0.344844	-0.333635	0.147965	-0.424313	-0.196360	0.048676	-0.355873	-0.149590	0.055310	-0.421089	-0.124727	0.045444	-0.412704	-0.240359	0.844147	-0.711130	-0.216399	0.787840	-0.720303	-0.157326	0.809654	-0.735454	-0.172757	0.867808	-0.728721	-0.195799	0.550039	-0.707018	-0.165669	0.534253	-0.585306	-0.283507	0.335195	-0.705212	-0.294247	0.296949	-0.696607	-0.235408	0.283458	-0.714516	-0.232580	0.326903	-0.721233	-0.332511	0.142302	-0.635985	-0.202491	0.050294	-0.723370	-0.149192	0.056723	-0.665573	-0.125069	0.041174	-0.676991	
383	1.9150	-0.260550	1.550574	-0.519789	-0.211910	1.543518	-0.707421	-0.212804	1.547373	-0.339956	-0.108137	1.520739	-0.528745	-0.112582	1.039238	-0.412023	-0.125705	1.048093	-0.645498	-0.182113	1.121602	-0.358327	-0.189668	1.134534	-0.683145	-0.290460	1.101934	-0.478453	-0.294000	1.107341	-0.555670	-0.293050	1.101680	-0.516396	-0.205593	0.862632	-0.330423	-0.193268	0.804733	-0.324978	-0.129198	0.816488	-0.325985	-0.134895	0.877379	-0.332255	-0.192049	0.528488	-0.352165	-0.165635	0.521124	-0.475282	-0.255876	0.376143	-0.336108	-0.273895	0.338093	-0.347341	-0.216506	0.317709	-0.350131	-0.202139	0.355132	-0.344635	-0.333192	0.149202	-0.423799	-0.195749	0.050165	-0.355465	-0.149155	0.056911	-0.420576	-0.124333	0.047292	-0.412044	-0.240625	0.846503	-0.710981	-0.216743	0.790146	-0.720059	-0.157580	0.811842	-0.735051	-0.172935	0.870024	-0.728386	-0.196198	0.551940	-0.706679	-0.166432	0.536212	-0.584882	-0.283270	0.336699	-0.705133	-0.293902	0.298430	-0.696529	-0.234978	0.285102	-0.714246	-0.232271	0.328569	-0.721000	-0.332071	0.143874	-0.635642	-0.202237	0.052112	-0.723227	-0.148969	0.058315	-0.666059	-0.125060	0.042691	-0.677874	
384	1.9200	-0.260498	1.552323	-0.519549	-0.211650	1.545433	-0.707081	-0.212499	1.549225	-0.339750	-0.108156	1.522422	-0.528468	-0.112656	1.040810	-0.411935	-0.125937	1.049850	-0.645300	-0.182136	1.123318	-0.358193	-0.189807	1.136555	-0.682872	-0.290506	1.104015	-0.478128	-0.294195	1.109449	-0.555309	-0.293116	1.103760	-0.516042	-0.205687	0.864315	-0.330279	-0.193504	0.806388	-0.324914	-0.129404	0.817997	-0.326106	-0.134979	0.878906	-0.332301	-0.192634	0.529959	-0.352084	-0.166500	0.522563	-0.475247	-0.255969	0.377369	-0.335701	-0.273904	0.339264	-0.346950	-0.216479	0.319046	-0.349930	-0.202185	0.356496	-0.344459	-0.332918	0.150221	-0.423371	-0.195130	0.051707	-0.354986	-0.148625	0.058630	-0.420022	-0.123812	0.049216	-0.411403	-0.240783	0.848523	-0.710897	-0.216958	0.792126	-0.719863	-0.157708	0.813720	-0.734670	-0.173007	0.871931	-0.728084	-0.196398	0.553574	-0.706381	-0.167054	0.537983	-0.584487	-0.283095	0.338062	-0.705012	-0.293682	0.299779	-0.696381	-0.234686	0.286524	-0.713868	-0.232027	0.329995	-0.720687	-0.331863	0.145129	-0.635111	-0.202035	0.054075	-0.723145	-0.148724	0.060189	-0.666481	-0.124930	0.044577	-0.678641	
385	1.9250	-0.260444	1.553801	-0.519305	-0.211371	1.547059	-0.706757	-0.212224	1.550783	-0.339534	-0.108159	1.523830	-0.528189	-0.112755	1.042098	-0.411885	-0.126209	1.051315	-0.645104	-0.182108	1.124747	-0.358046	-0.189928	1.138258	-0.682619	-0.290609	1.105749	-0.477796	-0.294418	1.111216	-0.554962	-0.293234	1.105494	-0.515686	-0.205797	0.865743	-0.330149	-0.193709	0.807765	-0.324835	-0.129580	0.819256	-0.326240	-0.135063	0.880181	-0.332364	-0.193116	0.531199	-0.351998	-0.167225	0.523768	-0.475183	-0.256072	0.378429	-0.335360	-0.273972	0.340291	-0.346592	-0.216518	0.320188	-0.349746	-0.202268	0.357656	-0.344290	-0.332776	0.151033	-0.423009	-0.194499	0.053249	-0.354462	-0.148031	0.060383	-0.419444	-0.123196	0.051142	-0.410776	-0.240838	0.850202	-0.710874	-0.217043	0.793774	-0.719716	-0.157713	0.815294	-0.734311	-0.172976	0.873524	-0.727813	-0.196416	0.554946	-0.706126	-0.167524	0.539562	-0.584128	-0.283009	0.339309	-0.704835	-0.293617	0.301019	-0.696161	-0.234561	0.287762	-0.713412	-0.231885	0.331219	-0.720308	-0.331842	0.146049	-0.634416	-0.201858	0.056135	-0.723100	-0.148456	0.062291	-0.666825	-0.124672	0.046783	-0.679254	
